<mxfile host="app.diagrams.net" modified="2024-07-07T07:45:40.721Z" agent="Mozilla/5.0 (Windows NT 10.0; Win64; x64) AppleWebKit/537.36 (KHTML, like Gecko) Chrome/109.0.0.0 Safari/537.36" etag="6JbXI_2w7tRK0YLrHQQG" version="24.3.1" type="device">
  <diagram id="v6o0DWE4hbOOhTnBZozn" name="Page-3">
    <mxGraphModel dx="1286" dy="682" grid="1" gridSize="10" guides="1" tooltips="1" connect="1" arrows="1" fold="1" page="1" pageScale="1" pageWidth="850" pageHeight="1100" math="0" shadow="0">
      <root>
        <mxCell id="0" />
        <mxCell id="1" parent="0" />
        <mxCell id="tS09RRix7TfyH3BZMnXy-1" value="«interface»&lt;br&gt;&lt;b&gt;CustomerDiscount&lt;/b&gt;" style="html=1;whiteSpace=wrap;" vertex="1" parent="1">
          <mxGeometry x="510" y="750" width="130" height="50" as="geometry" />
        </mxCell>
        <mxCell id="tS09RRix7TfyH3BZMnXy-2" value="«interface»&lt;br&gt;&lt;b&gt;BillAmount&lt;/b&gt;&lt;b style=&quot;background-color: initial;&quot;&gt;Discount&lt;/b&gt;" style="html=1;whiteSpace=wrap;" vertex="1" parent="1">
          <mxGeometry x="92" y="750" width="130" height="50" as="geometry" />
        </mxCell>
        <mxCell id="tS09RRix7TfyH3BZMnXy-3" value="PerHundredBillAmountDiscountStrategy" style="swimlane;fontStyle=1;align=center;verticalAlign=top;childLayout=stackLayout;horizontal=1;startSize=26;horizontalStack=0;resizeParent=1;resizeParentMax=0;resizeLast=0;collapsible=1;marginBottom=0;whiteSpace=wrap;html=1;" vertex="1" parent="1">
          <mxGeometry x="32" y="870" width="270" height="70" as="geometry">
            <mxRectangle x="100" y="650" width="250" height="30" as="alternateBounds" />
          </mxGeometry>
        </mxCell>
        <mxCell id="tS09RRix7TfyH3BZMnXy-6" value="+ calculateDiscount(Bill): double&lt;div&gt;+ isApplicable(Bill): boolean&lt;br&gt;&lt;/div&gt;" style="text;strokeColor=none;fillColor=none;align=left;verticalAlign=top;spacingLeft=4;spacingRight=4;overflow=hidden;rotatable=0;points=[[0,0.5],[1,0.5]];portConstraint=eastwest;whiteSpace=wrap;html=1;" vertex="1" parent="tS09RRix7TfyH3BZMnXy-3">
          <mxGeometry y="26" width="270" height="44" as="geometry" />
        </mxCell>
        <mxCell id="tS09RRix7TfyH3BZMnXy-9" value="" style="endArrow=block;dashed=1;endFill=0;endSize=12;html=1;rounded=0;exitX=0.455;exitY=-0.048;exitDx=0;exitDy=0;exitPerimeter=0;" edge="1" parent="1" source="tS09RRix7TfyH3BZMnXy-3" target="tS09RRix7TfyH3BZMnXy-2">
          <mxGeometry width="160" relative="1" as="geometry">
            <mxPoint x="312" y="860" as="sourcePoint" />
            <mxPoint x="472" y="860" as="targetPoint" />
          </mxGeometry>
        </mxCell>
        <mxCell id="tS09RRix7TfyH3BZMnXy-11" value="LoyaltyDiscountStrategy" style="swimlane;fontStyle=1;align=center;verticalAlign=top;childLayout=stackLayout;horizontal=1;startSize=26;horizontalStack=0;resizeParent=1;resizeParentMax=0;resizeLast=0;collapsible=1;marginBottom=0;whiteSpace=wrap;html=1;" vertex="1" parent="1">
          <mxGeometry x="321" y="920" width="190" height="70" as="geometry">
            <mxRectangle x="100" y="650" width="250" height="30" as="alternateBounds" />
          </mxGeometry>
        </mxCell>
        <mxCell id="tS09RRix7TfyH3BZMnXy-12" value="+ calculateDiscount(Bill): double&lt;div&gt;+ isApplicable(User): boolean&lt;br&gt;&lt;/div&gt;" style="text;strokeColor=none;fillColor=none;align=left;verticalAlign=top;spacingLeft=4;spacingRight=4;overflow=hidden;rotatable=0;points=[[0,0.5],[1,0.5]];portConstraint=eastwest;whiteSpace=wrap;html=1;" vertex="1" parent="tS09RRix7TfyH3BZMnXy-11">
          <mxGeometry y="26" width="190" height="44" as="geometry" />
        </mxCell>
        <mxCell id="tS09RRix7TfyH3BZMnXy-17" value="EmployeeDiscountStrategy" style="swimlane;fontStyle=1;align=center;verticalAlign=top;childLayout=stackLayout;horizontal=1;startSize=26;horizontalStack=0;resizeParent=1;resizeParentMax=0;resizeLast=0;collapsible=1;marginBottom=0;whiteSpace=wrap;html=1;" vertex="1" parent="1">
          <mxGeometry x="482" y="1010" width="190" height="70" as="geometry">
            <mxRectangle x="100" y="650" width="250" height="30" as="alternateBounds" />
          </mxGeometry>
        </mxCell>
        <mxCell id="tS09RRix7TfyH3BZMnXy-18" value="+ calculateDiscount(Bill): double&lt;div&gt;+ isApplicable(User): boolean&lt;br&gt;&lt;/div&gt;" style="text;strokeColor=none;fillColor=none;align=left;verticalAlign=top;spacingLeft=4;spacingRight=4;overflow=hidden;rotatable=0;points=[[0,0.5],[1,0.5]];portConstraint=eastwest;whiteSpace=wrap;html=1;" vertex="1" parent="tS09RRix7TfyH3BZMnXy-17">
          <mxGeometry y="26" width="190" height="44" as="geometry" />
        </mxCell>
        <mxCell id="tS09RRix7TfyH3BZMnXy-20" value="AffiliateDiscountStrategy" style="swimlane;fontStyle=1;align=center;verticalAlign=top;childLayout=stackLayout;horizontal=1;startSize=26;horizontalStack=0;resizeParent=1;resizeParentMax=0;resizeLast=0;collapsible=1;marginBottom=0;whiteSpace=wrap;html=1;" vertex="1" parent="1">
          <mxGeometry x="650" y="920" width="190" height="70" as="geometry">
            <mxRectangle x="100" y="650" width="250" height="30" as="alternateBounds" />
          </mxGeometry>
        </mxCell>
        <mxCell id="tS09RRix7TfyH3BZMnXy-21" value="+ calculateDiscount(Bill): double&lt;div&gt;+ isApplicable(User): boolean&lt;br&gt;&lt;/div&gt;" style="text;strokeColor=none;fillColor=none;align=left;verticalAlign=top;spacingLeft=4;spacingRight=4;overflow=hidden;rotatable=0;points=[[0,0.5],[1,0.5]];portConstraint=eastwest;whiteSpace=wrap;html=1;" vertex="1" parent="tS09RRix7TfyH3BZMnXy-20">
          <mxGeometry y="26" width="190" height="44" as="geometry" />
        </mxCell>
        <mxCell id="tS09RRix7TfyH3BZMnXy-24" value="" style="endArrow=none;dashed=1;endFill=0;endSize=12;html=1;rounded=0;" edge="1" parent="1" source="tS09RRix7TfyH3BZMnXy-20">
          <mxGeometry width="160" relative="1" as="geometry">
            <mxPoint x="580" y="878" as="sourcePoint" />
            <mxPoint x="575" y="860" as="targetPoint" />
            <Array as="points">
              <mxPoint x="745" y="860" />
            </Array>
          </mxGeometry>
        </mxCell>
        <mxCell id="tS09RRix7TfyH3BZMnXy-26" value="" style="endArrow=block;dashed=1;endFill=0;endSize=12;html=1;rounded=0;" edge="1" parent="1" source="tS09RRix7TfyH3BZMnXy-17" target="tS09RRix7TfyH3BZMnXy-1">
          <mxGeometry width="160" relative="1" as="geometry">
            <mxPoint x="574.5" y="907" as="sourcePoint" />
            <mxPoint x="575.5" y="840" as="targetPoint" />
          </mxGeometry>
        </mxCell>
        <mxCell id="tS09RRix7TfyH3BZMnXy-30" value="" style="endArrow=none;dashed=1;endFill=0;endSize=12;html=1;rounded=0;exitX=0.552;exitY=-0.006;exitDx=0;exitDy=0;exitPerimeter=0;" edge="1" parent="1" source="tS09RRix7TfyH3BZMnXy-11">
          <mxGeometry width="160" relative="1" as="geometry">
            <mxPoint x="455" y="900" as="sourcePoint" />
            <mxPoint x="575" y="860" as="targetPoint" />
            <Array as="points">
              <mxPoint x="425" y="860" />
            </Array>
          </mxGeometry>
        </mxCell>
        <mxCell id="tS09RRix7TfyH3BZMnXy-31" value="BillAmountDiscountContext" style="swimlane;fontStyle=1;align=center;verticalAlign=top;childLayout=stackLayout;horizontal=1;startSize=26;horizontalStack=0;resizeParent=1;resizeParentMax=0;resizeLast=0;collapsible=1;marginBottom=0;whiteSpace=wrap;html=1;" vertex="1" parent="1">
          <mxGeometry x="16" y="590" width="280" height="84" as="geometry" />
        </mxCell>
        <mxCell id="tS09RRix7TfyH3BZMnXy-32" value="+ discountStrategies: List&amp;lt;BillAmountDiscount&amp;gt;" style="text;strokeColor=none;fillColor=none;align=left;verticalAlign=top;spacingLeft=4;spacingRight=4;overflow=hidden;rotatable=0;points=[[0,0.5],[1,0.5]];portConstraint=eastwest;whiteSpace=wrap;html=1;" vertex="1" parent="tS09RRix7TfyH3BZMnXy-31">
          <mxGeometry y="26" width="280" height="24" as="geometry" />
        </mxCell>
        <mxCell id="tS09RRix7TfyH3BZMnXy-33" value="" style="line;strokeWidth=1;fillColor=none;align=left;verticalAlign=middle;spacingTop=-1;spacingLeft=3;spacingRight=3;rotatable=0;labelPosition=right;points=[];portConstraint=eastwest;strokeColor=inherit;" vertex="1" parent="tS09RRix7TfyH3BZMnXy-31">
          <mxGeometry y="50" width="280" height="8" as="geometry" />
        </mxCell>
        <mxCell id="tS09RRix7TfyH3BZMnXy-34" value="+ applyDiscount(Bill): double" style="text;strokeColor=none;fillColor=none;align=left;verticalAlign=top;spacingLeft=4;spacingRight=4;overflow=hidden;rotatable=0;points=[[0,0.5],[1,0.5]];portConstraint=eastwest;whiteSpace=wrap;html=1;" vertex="1" parent="tS09RRix7TfyH3BZMnXy-31">
          <mxGeometry y="58" width="280" height="26" as="geometry" />
        </mxCell>
        <mxCell id="tS09RRix7TfyH3BZMnXy-35" value="CustomerDiscountContext" style="swimlane;fontStyle=1;align=center;verticalAlign=top;childLayout=stackLayout;horizontal=1;startSize=26;horizontalStack=0;resizeParent=1;resizeParentMax=0;resizeLast=0;collapsible=1;marginBottom=0;whiteSpace=wrap;html=1;" vertex="1" parent="1">
          <mxGeometry x="434" y="590" width="280" height="84" as="geometry" />
        </mxCell>
        <mxCell id="tS09RRix7TfyH3BZMnXy-36" value="+ discountStrategies: List&amp;lt;CustomerDiscount&amp;gt;" style="text;strokeColor=none;fillColor=none;align=left;verticalAlign=top;spacingLeft=4;spacingRight=4;overflow=hidden;rotatable=0;points=[[0,0.5],[1,0.5]];portConstraint=eastwest;whiteSpace=wrap;html=1;" vertex="1" parent="tS09RRix7TfyH3BZMnXy-35">
          <mxGeometry y="26" width="280" height="24" as="geometry" />
        </mxCell>
        <mxCell id="tS09RRix7TfyH3BZMnXy-37" value="" style="line;strokeWidth=1;fillColor=none;align=left;verticalAlign=middle;spacingTop=-1;spacingLeft=3;spacingRight=3;rotatable=0;labelPosition=right;points=[];portConstraint=eastwest;strokeColor=inherit;" vertex="1" parent="tS09RRix7TfyH3BZMnXy-35">
          <mxGeometry y="50" width="280" height="8" as="geometry" />
        </mxCell>
        <mxCell id="tS09RRix7TfyH3BZMnXy-38" value="+ applyDiscount(Bill): double" style="text;strokeColor=none;fillColor=none;align=left;verticalAlign=top;spacingLeft=4;spacingRight=4;overflow=hidden;rotatable=0;points=[[0,0.5],[1,0.5]];portConstraint=eastwest;whiteSpace=wrap;html=1;" vertex="1" parent="tS09RRix7TfyH3BZMnXy-35">
          <mxGeometry y="58" width="280" height="26" as="geometry" />
        </mxCell>
        <mxCell id="tS09RRix7TfyH3BZMnXy-39" value="" style="endArrow=diamondThin;endFill=1;endSize=24;html=1;rounded=0;" edge="1" parent="1" source="tS09RRix7TfyH3BZMnXy-38" target="tS09RRix7TfyH3BZMnXy-1">
          <mxGeometry width="160" relative="1" as="geometry">
            <mxPoint x="295" y="710" as="sourcePoint" />
            <mxPoint x="455" y="710" as="targetPoint" />
          </mxGeometry>
        </mxCell>
        <mxCell id="tS09RRix7TfyH3BZMnXy-40" value="" style="endArrow=diamondThin;endFill=1;endSize=24;html=1;rounded=0;" edge="1" parent="1" source="tS09RRix7TfyH3BZMnXy-31" target="tS09RRix7TfyH3BZMnXy-2">
          <mxGeometry width="160" relative="1" as="geometry">
            <mxPoint x="344" y="684" as="sourcePoint" />
            <mxPoint x="345" y="760" as="targetPoint" />
          </mxGeometry>
        </mxCell>
        <mxCell id="tS09RRix7TfyH3BZMnXy-42" value="BillCalculationService" style="swimlane;fontStyle=1;align=center;verticalAlign=top;childLayout=stackLayout;horizontal=1;startSize=26;horizontalStack=0;resizeParent=1;resizeParentMax=0;resizeLast=0;collapsible=1;marginBottom=0;whiteSpace=wrap;html=1;" vertex="1" parent="1">
          <mxGeometry x="202" y="380" width="330" height="134" as="geometry" />
        </mxCell>
        <mxCell id="tS09RRix7TfyH3BZMnXy-43" value="+ billAmountDiscountContext: BillAmountDiscountContext" style="text;strokeColor=none;fillColor=none;align=left;verticalAlign=top;spacingLeft=4;spacingRight=4;overflow=hidden;rotatable=0;points=[[0,0.5],[1,0.5]];portConstraint=eastwest;whiteSpace=wrap;html=1;" vertex="1" parent="tS09RRix7TfyH3BZMnXy-42">
          <mxGeometry y="26" width="330" height="24" as="geometry" />
        </mxCell>
        <mxCell id="tS09RRix7TfyH3BZMnXy-46" value="+ customerDiscountContext: CustomerDiscountContext" style="text;strokeColor=none;fillColor=none;align=left;verticalAlign=top;spacingLeft=4;spacingRight=4;overflow=hidden;rotatable=0;points=[[0,0.5],[1,0.5]];portConstraint=eastwest;whiteSpace=wrap;html=1;" vertex="1" parent="tS09RRix7TfyH3BZMnXy-42">
          <mxGeometry y="50" width="330" height="24" as="geometry" />
        </mxCell>
        <mxCell id="tS09RRix7TfyH3BZMnXy-44" value="" style="line;strokeWidth=1;fillColor=none;align=left;verticalAlign=middle;spacingTop=-1;spacingLeft=3;spacingRight=3;rotatable=0;labelPosition=right;points=[];portConstraint=eastwest;strokeColor=inherit;" vertex="1" parent="tS09RRix7TfyH3BZMnXy-42">
          <mxGeometry y="74" width="330" height="8" as="geometry" />
        </mxCell>
        <mxCell id="tS09RRix7TfyH3BZMnXy-45" value="+ validateBill(Bill): boolean" style="text;strokeColor=none;fillColor=none;align=left;verticalAlign=top;spacingLeft=4;spacingRight=4;overflow=hidden;rotatable=0;points=[[0,0.5],[1,0.5]];portConstraint=eastwest;whiteSpace=wrap;html=1;" vertex="1" parent="tS09RRix7TfyH3BZMnXy-42">
          <mxGeometry y="82" width="330" height="26" as="geometry" />
        </mxCell>
        <mxCell id="tS09RRix7TfyH3BZMnXy-47" value="+ calculatePayableBill(Bill): Bill" style="text;strokeColor=none;fillColor=none;align=left;verticalAlign=top;spacingLeft=4;spacingRight=4;overflow=hidden;rotatable=0;points=[[0,0.5],[1,0.5]];portConstraint=eastwest;whiteSpace=wrap;html=1;" vertex="1" parent="tS09RRix7TfyH3BZMnXy-42">
          <mxGeometry y="108" width="330" height="26" as="geometry" />
        </mxCell>
        <mxCell id="tS09RRix7TfyH3BZMnXy-48" value="" style="endArrow=diamondThin;endFill=1;endSize=24;html=1;rounded=0;" edge="1" parent="1" source="tS09RRix7TfyH3BZMnXy-42" target="tS09RRix7TfyH3BZMnXy-31">
          <mxGeometry width="160" relative="1" as="geometry">
            <mxPoint x="130" y="474" as="sourcePoint" />
            <mxPoint x="131" y="550" as="targetPoint" />
            <Array as="points">
              <mxPoint x="156" y="447" />
            </Array>
          </mxGeometry>
        </mxCell>
        <mxCell id="tS09RRix7TfyH3BZMnXy-49" value="" style="endArrow=diamondThin;endFill=1;endSize=24;html=1;rounded=0;" edge="1" parent="1" source="tS09RRix7TfyH3BZMnXy-42" target="tS09RRix7TfyH3BZMnXy-35">
          <mxGeometry width="160" relative="1" as="geometry">
            <mxPoint x="788" y="390" as="sourcePoint" />
            <mxPoint x="714" y="531" as="targetPoint" />
            <Array as="points">
              <mxPoint x="574" y="447" />
            </Array>
          </mxGeometry>
        </mxCell>
        <mxCell id="tS09RRix7TfyH3BZMnXy-50" value="Bill" style="swimlane;fontStyle=1;align=center;verticalAlign=top;childLayout=stackLayout;horizontal=1;startSize=26;horizontalStack=0;resizeParent=1;resizeParentMax=0;resizeLast=0;collapsible=1;marginBottom=0;whiteSpace=wrap;html=1;" vertex="1" parent="1">
          <mxGeometry x="32" y="30" width="160" height="182" as="geometry" />
        </mxCell>
        <mxCell id="tS09RRix7TfyH3BZMnXy-51" value="+ user: User" style="text;strokeColor=none;fillColor=none;align=left;verticalAlign=top;spacingLeft=4;spacingRight=4;overflow=hidden;rotatable=0;points=[[0,0.5],[1,0.5]];portConstraint=eastwest;whiteSpace=wrap;html=1;" vertex="1" parent="tS09RRix7TfyH3BZMnXy-50">
          <mxGeometry y="26" width="160" height="26" as="geometry" />
        </mxCell>
        <mxCell id="tS09RRix7TfyH3BZMnXy-54" value="+ payableAmount: double" style="text;strokeColor=none;fillColor=none;align=left;verticalAlign=top;spacingLeft=4;spacingRight=4;overflow=hidden;rotatable=0;points=[[0,0.5],[1,0.5]];portConstraint=eastwest;whiteSpace=wrap;html=1;" vertex="1" parent="tS09RRix7TfyH3BZMnXy-50">
          <mxGeometry y="52" width="160" height="26" as="geometry" />
        </mxCell>
        <mxCell id="tS09RRix7TfyH3BZMnXy-55" value="+ discount: double" style="text;strokeColor=none;fillColor=none;align=left;verticalAlign=top;spacingLeft=4;spacingRight=4;overflow=hidden;rotatable=0;points=[[0,0.5],[1,0.5]];portConstraint=eastwest;whiteSpace=wrap;html=1;" vertex="1" parent="tS09RRix7TfyH3BZMnXy-50">
          <mxGeometry y="78" width="160" height="26" as="geometry" />
        </mxCell>
        <mxCell id="tS09RRix7TfyH3BZMnXy-56" value="+ items: List&amp;lt;Item&amp;gt;" style="text;strokeColor=none;fillColor=none;align=left;verticalAlign=top;spacingLeft=4;spacingRight=4;overflow=hidden;rotatable=0;points=[[0,0.5],[1,0.5]];portConstraint=eastwest;whiteSpace=wrap;html=1;" vertex="1" parent="tS09RRix7TfyH3BZMnXy-50">
          <mxGeometry y="104" width="160" height="26" as="geometry" />
        </mxCell>
        <mxCell id="tS09RRix7TfyH3BZMnXy-57" value="+ total: double" style="text;strokeColor=none;fillColor=none;align=left;verticalAlign=top;spacingLeft=4;spacingRight=4;overflow=hidden;rotatable=0;points=[[0,0.5],[1,0.5]];portConstraint=eastwest;whiteSpace=wrap;html=1;" vertex="1" parent="tS09RRix7TfyH3BZMnXy-50">
          <mxGeometry y="130" width="160" height="26" as="geometry" />
        </mxCell>
        <mxCell id="tS09RRix7TfyH3BZMnXy-58" value="+ nonGroceryTotal: double" style="text;strokeColor=none;fillColor=none;align=left;verticalAlign=top;spacingLeft=4;spacingRight=4;overflow=hidden;rotatable=0;points=[[0,0.5],[1,0.5]];portConstraint=eastwest;whiteSpace=wrap;html=1;" vertex="1" parent="tS09RRix7TfyH3BZMnXy-50">
          <mxGeometry y="156" width="160" height="26" as="geometry" />
        </mxCell>
        <mxCell id="tS09RRix7TfyH3BZMnXy-59" value="User" style="swimlane;fontStyle=1;align=center;verticalAlign=top;childLayout=stackLayout;horizontal=1;startSize=26;horizontalStack=0;resizeParent=1;resizeParentMax=0;resizeLast=0;collapsible=1;marginBottom=0;whiteSpace=wrap;html=1;" vertex="1" parent="1">
          <mxGeometry x="427" y="80" width="160" height="78" as="geometry" />
        </mxCell>
        <mxCell id="tS09RRix7TfyH3BZMnXy-60" value="+ userType: UserType" style="text;strokeColor=none;fillColor=none;align=left;verticalAlign=top;spacingLeft=4;spacingRight=4;overflow=hidden;rotatable=0;points=[[0,0.5],[1,0.5]];portConstraint=eastwest;whiteSpace=wrap;html=1;" vertex="1" parent="tS09RRix7TfyH3BZMnXy-59">
          <mxGeometry y="26" width="160" height="26" as="geometry" />
        </mxCell>
        <mxCell id="tS09RRix7TfyH3BZMnXy-63" value="+ customerSince: Date" style="text;strokeColor=none;fillColor=none;align=left;verticalAlign=top;spacingLeft=4;spacingRight=4;overflow=hidden;rotatable=0;points=[[0,0.5],[1,0.5]];portConstraint=eastwest;whiteSpace=wrap;html=1;" vertex="1" parent="tS09RRix7TfyH3BZMnXy-59">
          <mxGeometry y="52" width="160" height="26" as="geometry" />
        </mxCell>
        <mxCell id="tS09RRix7TfyH3BZMnXy-64" value="Item" style="swimlane;fontStyle=1;align=center;verticalAlign=top;childLayout=stackLayout;horizontal=1;startSize=26;horizontalStack=0;resizeParent=1;resizeParentMax=0;resizeLast=0;collapsible=1;marginBottom=0;whiteSpace=wrap;html=1;" vertex="1" parent="1">
          <mxGeometry x="427" y="220" width="160" height="104" as="geometry" />
        </mxCell>
        <mxCell id="tS09RRix7TfyH3BZMnXy-65" value="+ name: String" style="text;strokeColor=none;fillColor=none;align=left;verticalAlign=top;spacingLeft=4;spacingRight=4;overflow=hidden;rotatable=0;points=[[0,0.5],[1,0.5]];portConstraint=eastwest;whiteSpace=wrap;html=1;" vertex="1" parent="tS09RRix7TfyH3BZMnXy-64">
          <mxGeometry y="26" width="160" height="26" as="geometry" />
        </mxCell>
        <mxCell id="tS09RRix7TfyH3BZMnXy-66" value="+ price: double" style="text;strokeColor=none;fillColor=none;align=left;verticalAlign=top;spacingLeft=4;spacingRight=4;overflow=hidden;rotatable=0;points=[[0,0.5],[1,0.5]];portConstraint=eastwest;whiteSpace=wrap;html=1;" vertex="1" parent="tS09RRix7TfyH3BZMnXy-64">
          <mxGeometry y="52" width="160" height="26" as="geometry" />
        </mxCell>
        <mxCell id="tS09RRix7TfyH3BZMnXy-67" value="+ isGrocery: boolean" style="text;strokeColor=none;fillColor=none;align=left;verticalAlign=top;spacingLeft=4;spacingRight=4;overflow=hidden;rotatable=0;points=[[0,0.5],[1,0.5]];portConstraint=eastwest;whiteSpace=wrap;html=1;" vertex="1" parent="tS09RRix7TfyH3BZMnXy-64">
          <mxGeometry y="78" width="160" height="26" as="geometry" />
        </mxCell>
        <mxCell id="tS09RRix7TfyH3BZMnXy-68" value="«Enum»&lt;br&gt;&lt;b&gt;UserType&lt;/b&gt;" style="html=1;whiteSpace=wrap;" vertex="1" parent="1">
          <mxGeometry x="660" y="94" width="110" height="50" as="geometry" />
        </mxCell>
        <mxCell id="tS09RRix7TfyH3BZMnXy-69" value="" style="endArrow=diamondThin;endFill=1;endSize=24;html=1;rounded=0;" edge="1" parent="1" source="tS09RRix7TfyH3BZMnXy-50" target="tS09RRix7TfyH3BZMnXy-64">
          <mxGeometry width="160" relative="1" as="geometry">
            <mxPoint x="170" y="290" as="sourcePoint" />
            <mxPoint x="330" y="290" as="targetPoint" />
            <Array as="points">
              <mxPoint x="110" y="272" />
            </Array>
          </mxGeometry>
        </mxCell>
        <mxCell id="tS09RRix7TfyH3BZMnXy-70" value="" style="endArrow=diamondThin;endFill=1;endSize=24;html=1;rounded=0;" edge="1" parent="1" source="tS09RRix7TfyH3BZMnXy-59" target="tS09RRix7TfyH3BZMnXy-68">
          <mxGeometry width="160" relative="1" as="geometry">
            <mxPoint x="505" y="118.57" as="sourcePoint" />
            <mxPoint x="665" y="118.57" as="targetPoint" />
          </mxGeometry>
        </mxCell>
        <mxCell id="tS09RRix7TfyH3BZMnXy-72" value="" style="endArrow=diamondThin;endFill=1;endSize=24;html=1;rounded=0;" edge="1" parent="1" source="tS09RRix7TfyH3BZMnXy-50" target="tS09RRix7TfyH3BZMnXy-59">
          <mxGeometry width="160" relative="1" as="geometry">
            <mxPoint x="420" y="240" as="sourcePoint" />
            <mxPoint x="580" y="240" as="targetPoint" />
          </mxGeometry>
        </mxCell>
      </root>
    </mxGraphModel>
  </diagram>
</mxfile>
